<svg width="600" height="150" xmlns="http://www.w3.org/2000/svg">
  <defs>
    <filter id="neon-glow" x="-50%" y="-50%" width="200%" height="200%">
      <feGaussianBlur in="SourceGraphic" stdDeviation="3" result="blur" />
      <feColorMatrix in="blur" mode="matrix" values="
        1 0 0 0 0
        0 0.5 0 0 0
        0 0 1 0 0
        0 0 0 1 0" result="glow" />
      <feBlend in="SourceGraphic" in2="glow" mode="normal" />
    </filter>
  </defs>
  
  <!-- Background rectangle for better visibility -->
  <rect width="600" height="150" fill="transparent" />
  
  <!-- Main text with Drive movie style - using a script/brush style font to mimic Mistral -->
  <path d="M100,75 C120,60 130,50 150,50 C170,50 180,70 180,85 C180,100 170,110 160,110 C150,110 145,100 145,90 C145,80 150,70 160,70 C170,70 180,80 190,90 C200,100 210,110 220,110 C230,110 240,100 240,85 C240,70 230,60 220,60 C210,60 200,70 200,80 C200,90 210,100 220,100 C230,100 240,90 250,80 C260,70 270,60 280,60 C290,60 300,70 300,85 C300,100 290,110 280,110 C270,110 260,100 260,90 C260,80 270,70 280,70 C290,70 300,80 310,90 C320,100 330,110 340,110 C350,110 360,100 360,85 C360,70 350,60 340,60 C330,60 320,70 320,80 C320,90 330,100 340,100 C350,100 360,90 370,80 C380,70 390,60 400,60 C410,60 420,70 420,85 C420,100 410,110 400,110 C390,110 380,100 380,90 C380,80 390,70 400,70 C410,70 420,80 430,90 C440,100 450,110 460,110 C470,110 480,100 480,85 C480,70 470,60 460,60 C450,60 440,70 440,80 C440,90 450,100 460,100 C470,100 480,90 490,80 C500,70 510,60 520,60" 
        stroke="#ff00aa" stroke-width="5" fill="none" filter="url(#neon-glow)" />
  
  <!-- Text "weezly.works" in a style similar to the Drive logo -->
  <text x="50%" y="50%" dominant-baseline="middle" text-anchor="middle" 
        font-family="cursive" font-style="italic" font-weight="400" font-size="80" 
        letter-spacing="0" fill="#ff00aa" filter="url(#neon-glow)">
    weezly.works
  </text>
</svg>